<svg width="71" height="70" viewBox="0 0 71 70" fill="none" xmlns="http://www.w3.org/2000/svg">
<g filter="url(#filter0_d_95_656)">
<circle cx="35.3996" cy="21.9796" r="16.7999" fill="#1A202C"/>
</g>
<path d="M35.3996 5.17969C26.1211 5.17969 18.5996 12.7012 18.5996 21.9797C18.5996 31.2582 26.1211 38.7797 35.3996 38.7797C44.6781 38.7797 52.1996 31.2582 52.1996 21.9797C52.1996 12.7012 44.6781 5.17969 35.3996 5.17969ZM42.2334 18.9417C42.2404 19.0852 42.2421 19.2287 42.2421 19.3687C42.2421 23.7437 38.9154 28.7854 32.8289 28.7854C31.0304 28.7884 29.2693 28.2719 27.7574 27.2979C28.0146 27.3294 28.2789 27.3417 28.5466 27.3417C30.0971 27.3417 31.5234 26.8149 32.6556 25.9259C31.9656 25.9124 31.297 25.6839 30.7431 25.2723C30.1891 24.8608 29.7773 24.2866 29.5651 23.6299C30.0606 23.7242 30.5711 23.7044 31.0579 23.5722C30.3089 23.4207 29.6355 23.0149 29.1516 22.4236C28.6677 21.8323 28.4033 21.0918 28.4031 20.3277V20.2874C28.8494 20.5342 29.3604 20.6847 29.9029 20.7022C29.2008 20.2348 28.7037 19.5169 28.5134 18.6952C28.3231 17.8735 28.454 17.0101 28.8791 16.2817C29.7103 17.3037 30.7468 18.1397 31.9216 18.7357C33.0964 19.3317 34.3833 19.6743 35.6989 19.7414C35.5316 19.0315 35.6036 18.2861 35.9036 17.6213C36.2037 16.9565 36.7149 16.4094 37.358 16.0652C38.001 15.7209 38.7398 15.5987 39.4594 15.7176C40.1791 15.8365 40.8393 16.1899 41.3374 16.7227C42.0779 16.5762 42.7881 16.3045 43.4374 15.9194C43.1905 16.6862 42.6738 17.3372 41.9831 17.7517C42.6391 17.6727 43.2796 17.4963 43.8836 17.2284C43.44 17.8933 42.8811 18.4735 42.2334 18.9417Z" fill="white"/>
<defs>
<filter id="filter0_d_95_656" x="0.599609" y="0.179688" width="69.5996" height="69.6001" filterUnits="userSpaceOnUse" color-interpolation-filters="sRGB">
<feFlood flood-opacity="0" result="BackgroundImageFix"/>
<feColorMatrix in="SourceAlpha" type="matrix" values="0 0 0 0 0 0 0 0 0 0 0 0 0 0 0 0 0 0 127 0" result="hardAlpha"/>
<feOffset dy="13"/>
<feGaussianBlur stdDeviation="9"/>
<feColorMatrix type="matrix" values="0 0 0 0 0.0658854 0 0 0 0 0.0730469 0 0 0 0 0.1375 0 0 0 0.08 0"/>
<feBlend mode="normal" in2="BackgroundImageFix" result="effect1_dropShadow_95_656"/>
<feBlend mode="normal" in="SourceGraphic" in2="effect1_dropShadow_95_656" result="shape"/>
</filter>
</defs>
</svg>
